{
	"asset":{
		"generator":"Khronos glTF Blender I/O v3.5.30",
		"version":"2.0"
	},
	"extensionsUsed":[
		"KHR_materials_specular"
	],
	"scene":0,
	"scenes":[
		{
			"name":"Scene",
			"nodes":[
				5
			]
		}
	],
	"nodes":[
		{
			"mesh":0,
			"name":"kitten_GEO"
		},
		{
			"children":[
				0
			],
			"name":"MorphMainGroup"
		},
		{
			"children":[
				1
			],
			"name":"Object_3"
		},
		{
			"children":[
				2
			],
			"name":"Object_2",
			"rotation":[
				0.70710688829422,
				0,
				0,
				0.7071066498756409
			]
		},
		{
			"children":[
				3
			],
			"name":"0a54b838e782461988774ab67422dfe7.abc.cleaner.materialmerger.gle"
		},
		{
			"children":[
				4
			],
			"name":"Sketchfab_model",
			"rotation":[
				-0.70710688829422,
				0,
				0,
				0.7071066498756409
			],
			"scale":[
				1.0751593112945557,
				1.0751594305038452,
				1.0751594305038452
			]
		}
	],
	"materials":[
		{
			"doubleSided":true,
			"extensions":{
				"KHR_materials_specular":{
					"specularColorTexture":{
						"index":0
					}
				}
			},
			"name":"kitten_GEO",
			"pbrMetallicRoughness":{
				"baseColorTexture":{
					"index":1
				},
				"metallicFactor":0,
				"roughnessFactor":0.9005741477012634
			}
		}
	],
	"meshes":[
		{
			"name":"kitten_GEO",
			"primitives":[
				{
					"attributes":{
						"POSITION":0,
						"TEXCOORD_0":1,
						"NORMAL":2
					},
					"indices":3,
					"material":0
				}
			]
		}
	],
	"textures":[
		{
			"sampler":0,
			"source":0
		},
		{
			"sampler":0,
			"source":1
		}
	],
	"images":[
		{
			"mimeType":"image/png",
			"name":"Image",
			"uri":"Textures/Image.png"
		},
		{
			"mimeType":"image/png",
			"name":"kitten_GEO_baseColor",
			"uri":"Textures/kitten_GEO_baseColor.png"
		}
	],
	"accessors":[
		{
			"bufferView":0,
			"componentType":5126,
			"count":22417,
			"max":[
				0.08501309901475906,
				0.3048809766769409,
				0.32092171907424927
			],
			"min":[
				-0.07695812731981277,
				-0.0026490171439945698,
				-0.38063377141952515
			],
			"type":"VEC3"
		},
		{
			"bufferView":1,
			"componentType":5126,
			"count":22417,
			"type":"VEC2"
		},
		{
			"bufferView":2,
			"componentType":5126,
			"count":22417,
			"type":"VEC3"
		},
		{
			"bufferView":3,
			"componentType":5123,
			"count":115401,
			"type":"SCALAR"
		}
	],
	"bufferViews":[
		{
			"buffer":0,
			"byteLength":269004,
			"byteOffset":0,
			"target":34962
		},
		{
			"buffer":0,
			"byteLength":179336,
			"byteOffset":269004,
			"target":34962
		},
		{
			"buffer":0,
			"byteLength":269004,
			"byteOffset":448340,
			"target":34962
		},
		{
			"buffer":0,
			"byteLength":230802,
			"byteOffset":717344,
			"target":34963
		}
	],
	"samplers":[
		{
			"magFilter":9729,
			"minFilter":9987
		}
	],
	"buffers":[
		{
			"byteLength":948148,
			"uri":"scene.bin"
		}
	]
}
